/* XPM */
static char *_d56e205b2ea4a57a7843fe5314018edqSrsuNbEhWszqO75[] = {
/* columns rows colors chars-per-pixel */
"64 64 238 2 ",
"   c #00031B",
".  c #000316",
"X  c #010B23",
"o  c #030928",
"O  c #0B152B",
"+  c #081529",
"@  c #131D2D",
"#  c #11172D",
"$  c #0B1635",
"%  c #121D34",
"&  c #151E3A",
"*  c #181F39",
"=  c #152134",
"-  c #1A2335",
";  c #16223C",
":  c #1B253C",
">  c #1E2A3D",
",  c #1D2B34",
"<  c #152228",
"1  c #212B3D",
"2  c #21273A",
"3  c #25313C",
"4  c #2A343A",
"5  c #1D2542",
"6  c #1E2943",
"7  c #1B2A48",
"8  c #232D43",
"9  c #242E4A",
"0  c #252B46",
"q  c #243144",
"w  c #2A3345",
"e  c #25314C",
"r  c #2B354C",
"t  c #2D394C",
"y  c #323C4C",
"u  c #313949",
"i  c #252D51",
"p  c #2B3551",
"a  c #2D3953",
"s  c #2C3659",
"d  c #2D3B5A",
"f  c #263454",
"g  c #333D54",
"h  c #333E5A",
"j  c #333854",
"k  c #2F3A62",
"l  c #323F62",
"z  c #323A68",
"x  c #36414E",
"c  c #354155",
"v  c #394254",
"b  c #35425B",
"n  c #3A455C",
"m  c #3C495D",
"M  c #354262",
"N  c #3A4662",
"B  c #3D4B64",
"V  c #3E4C6A",
"C  c #38456A",
"Z  c #3E5167",
"A  c #394774",
"S  c #424C5E",
"D  c #454857",
"F  c #47535E",
"G  c #414D65",
"H  c #424E6A",
"J  c #404761",
"K  c #435266",
"L  c #4A5365",
"P  c #44536B",
"I  c #4A556C",
"U  c #47596E",
"Y  c #4A596E",
"T  c #4A5965",
"R  c #515A6D",
"E  c #525968",
"W  c #424D77",
"Q  c #455471",
"!  c #495672",
"~  c #475872",
"^  c #4B5B73",
"/  c #4D5C79",
"(  c #47557B",
")  c #535C75",
"_  c #535D7B",
"`  c #575B75",
"'  c #56606B",
"]  c #4F617A",
"[  c #536276",
"{  c #54647D",
"}  c #59657C",
"|  c #56697C",
" . c #5A6B7D",
".. c #596475",
"X. c #5C727F",
"o. c #626B7E",
"O. c #4C5C84",
"+. c #555D81",
"@. c #556682",
"#. c #5B6581",
"$. c #566A83",
"%. c #5B6C84",
"&. c #566A89",
"*. c #5C6D8A",
"=. c #58668B",
"-. c #5E7184",
";. c #5E718B",
":. c #5D6E91",
">. c #5B6D9A",
",. c #5E7193",
"<. c #5E719A",
"1. c #636D84",
"2. c #616E8C",
"3. c #627285",
"4. c #60718A",
"5. c #62728C",
"6. c #69748B",
"7. c #68788A",
"8. c #616F95",
"9. c #637493",
"0. c #667993",
"q. c #6A7A94",
"w. c #63759B",
"e. c #6A779B",
"r. c #657A9B",
"t. c #6B7B9C",
"y. c #6B7793",
"u. c #727E9B",
"i. c #717C94",
"p. c #5B71A2",
"a. c #6376A2",
"s. c #657AA3",
"d. c #6B7DA3",
"f. c #6C7DAC",
"g. c #6977A4",
"h. c #717FA7",
"j. c #6E819D",
"k. c #73839C",
"l. c #76849B",
"z. c #6E81AC",
"x. c #6E82A5",
"c. c #7384A4",
"v. c #7986A4",
"b. c #7A8AA5",
"n. c #7484AB",
"m. c #7A84AC",
"M. c #7689AC",
"N. c #7A8BAC",
"B. c #7688A6",
"V. c #6E84B1",
"C. c #7485B3",
"Z. c #7987B3",
"A. c #758AB4",
"S. c #7A8BB3",
"D. c #7385BB",
"F. c #758ABB",
"G. c #7B8CBC",
"H. c #7986BB",
"J. c #7D91BC",
"K. c #7D92B3",
"L. c #7A92AB",
"P. c #7A8EC2",
"I. c #7B8EC9",
"U. c #7589C2",
"Y. c #7D91C3",
"T. c #7E93C9",
"R. c #818BA8",
"E. c #8494AE",
"W. c #8894AE",
"Q. c #818EB4",
"!. c #818EBC",
"~. c #8392B4",
"^. c #8393BC",
"/. c #8399BA",
"(. c #8C9BBC",
"). c #8996B4",
"_. c #909ABA",
"`. c #8394C3",
"'. c #8996C3",
"]. c #869AC4",
"[. c #8B9BC3",
"{. c #8394CA",
"}. c #859ACC",
"|. c #8C9CCC",
" X c #8996CD",
".X c #939EC5",
"XX c #919ECB",
"oX c #8C9CD3",
"OX c #889AD5",
"+X c #929FD2",
"@X c #828FCB",
"#X c #8DA1CD",
"$X c #88A0C2",
"%X c #94A3C4",
"&X c #93A4CC",
"*X c #99A8CC",
"=X c #8DA2D4",
"-X c #8FA3DC",
";X c #94A5D6",
":X c #92A4DB",
">X c #94A9DC",
",X c #9CACDD",
"<X c #99A8D3",
"1X c #9DB1DD",
"2X c #B3BDDC",
"3X c #A3AFD4",
"4X c #9FB3E3",
"5X c #9BAAE5",
"6X c #AFB7E3",
"7X c #B4C0D5",
"8X c #B5C3DD",
"9X c #BAC6DB",
"0X c #B6C3CC",
"qX c #BCCAE5",
"wX c #B6C6EA",
"eX c #BCCBEC",
"rX c #B9C6E6",
"tX c #BCCCF3",
"yX c #B7CAF6",
"uX c #BED1F7",
"iX c #BED2ED",
"pX c #C5D1DD",
"aX c #C3CDE4",
"sX c #C2CDEB",
"dX c #C8CFE9",
"fX c #C4D2E5",
"gX c #C4D2EC",
"hX c #C9D2EB",
"jX c #CCD8EB",
"kX c #D3DBED",
"lX c #C1CEF4",
"zX c #C4D2F3",
"xX c #CAD6F3",
"cX c #C4D4FC",
"vX c #CCDAFD",
"bX c #CAD8F9",
"nX c #D1DCF8",
"mX c #DAE1F8",
/* pixels */
"5.$.;.5.=.! X S zXS.@.9.%.*.5.5.B.;.;.;.3.%.Z a : t 5.%.;.5.P 5.2.~ %.5.5.;.4.%.;.$.5.%.P %.9.@.U P P g p !.tXl.$.;.N.L.:.%.9.%.",
"&.;.;.-.^ H : g b.0.*.%.5.-.@.;.0.&.5.*.! K P : y Y $.3.$.5.*.@.9.*.q.t.%.%.$.] } *.;.;.~ ;.} / P Q B w h m.h. .;.$.,.*.,.9.$.1.",
";.%.Y  .I H j 0 { { %.5.@./ 5.5.$.5.*.%.P ~ N + 0 H I 5.;.$.^ ! %.%.*.5.) $.7.$.~ 5.5.$.P %.~ B U H H = r Q / 3.^ ;.&.~ %.5.U %.",
"2.~ K T L j   8 U U $.%.U K %.%.) @.~ H ~ N b / n J ^ ~ H ~ H ! I ~ U ! V ^ %.~ P  .%.~ P ~ ! P m H b q O W /  .Q %.{ { %.U P  .",
"H ~ L S 8 g ` J c m ^ Y T ~ K ! K H L U B ; 5.sXJ p I I G C B B B B V H K ~ @.^ ~ H U H J N B H K h _ v L h H I U P P ) U P / P ",
"d c 0 1 X ! sXR.e g g G G K I a : m 0 a p P b.*.J m t r j r j m b d N N P H ^ K H B N G G H h p w V 2X6.2XR J S B m B b c n N G ",
"* * G h p J ` I e & O 6 : ; r % 1 - c %.5 B q.7 r ^ g G ; = 6 j B a p h N G H K J G c p j n 0 5 q 5.m.8 , 3 # - > : > 8 q 9 e M ",
"n 6.dXaX.X*XsXsX~.H ^ B K I g } w g } b e b / Q ) L 3.aXY w m i.xXW.^ b a c n I B a & X % X   * > n +.R D F D : * 1 > 0 p #.c.s ",
";XwX#XOX#XyX=X=XiX:XvXtX3XqXe.2X#., v & ( ;X&XcXjXeX#X,XD.'.xX9X}.G.:.c.M d v.B 1 % u E H R ' h W Z.eXzXfXaXmX_ C [./ B c q v T ",
"9.#X&XZ.F.`.$XOXS.^.J.&Xe.qXb.9.!.W % s XXtX'.`.J.|.F.I.:X{.G.(.F.a.O.O.Q.W ~ h C z E.eX;XeXjX'.&X`.^.].[.(.rXK.(.wXb.n > O j gX",
",.F.;Xa.Y.G.G.{.G.0.G.A.w.,.-.Z.5Xh.8 h ^.j.Z.P.Y.F.p.F.-XV.<.:.^.G.N.9.N.Q e B ;X=X].P.I.].A.OXzX^.D.U.-X>Xw.@.B.9.%.I h 5 Q .X",
"&.9.;X<.;.Y.-Xs.Z.@.w.w.c.9.%.<.^.dXw ) 2Xb.8X9.A.M.r.K.r.:.;.y.C.d.*.5.@.t.h G cX&XrX].U.V.j.}.j.M.s.P.P.I.J.z.9.Q T T w j rX.X",
"4.9.w.5.-.d.G.*.;.s.;.M.,.,.G.%.7.pX4 h [.0.l.-.:.*.2.%.%.v.%.4.r.,.;.@.U ^ 6 c ).N.0.r.`.j.L.V.;.c.&.M.,.,.K.s.:.2.~ S 1 c aXc.",
"X.~.%.[ 5.x.;.w.r.{.;.;.$.;.^.| 3.0XK z G.w.j.;.g.:.9.*.y.e.*.9.c.9.-.Y ! P r n Z.e.%.&.f.;.@.f.t.gXl.| 4.-.9.=.n.9.! G w b 6.k.",
"2.*.5.0.&.7. .Z.S.9.P | y.*.Q %.~ T B k D.w.,.0.].9.*.9.c.*.9.*.r.%.%.U B I N m Z.e.$.9.Z.9.%.Z.e.5.;.-.%.4.@.7.2.H U H c } i.fX",
":. .*.:.;.-.;.9.F.-.5.%.*.*.K *./ K m N n.;.$.5.0.$.%.%.9.;.$.-.$./ $.U U G r r / &.;.-.9.~  .w.*.N.9.,.%./ %.4. .P P q j @.[ 7.",
"1.^ | ;.;.*.P %.*.7.%.~ %.~ P U H B I r G 1.%.5.%.$.{ ;.$.%.] | / H %.~ K n 8 j H ! $.5.%.$.9.K %.9.:.h. .%.$.*.) B I q t K Y | ",
"%.| ^ @.5.%.~ T *.@.P Z / K U K B ~ M j   G 7.&.%./ $.%.0.Z 3.5.%.2.P ! G K q 1 K I K P U %.| [ T V Q %.%.$.I ~ K ) m 6 6 K P ;.",
"^ ~ ~ ~ H G U ~ U H ~ ~ P V H P V B B 0 1.H ~ *.@.U 5.@.] ^ P K B ~ P b H B 1 1 y G K I K P G G P U ! ~ P K P P B Z B b r H P ~ ",
"L b N Z ^ ^ G B ~ B P B N P G H J H h _ aX} K K ~ G ~ U ~ P Y G T B N H I g y 7.n g H P ! P ! ! K V N H U P T K P V h l.N ; g G ",
"h } H i 8 L K H B V B P H N G H S h } u.G t K L H ^ P G H G N n m ~ n r i : 6.2X6.; h H B B G a M V B B Z ~ ! K P V l %.; X + u ",
"E 9Xb.h   .   9 h b a b b 6 5 o X r *.5.h   8 g I G m m G H N 2.d e p 0 0 X c 9.%...:   q c r 3 N b d a N M 9 G V $ & ~ { ! [  .",
"u g i o.1.o.1.C : n y.n % 9 G #.) 2.zXcX*X} m 8 : 2 1 r r X 2.rXV h 9 - X } _.lXxXeXq.Z B % @ g /   = b s V %.r j 2.8..XcX<XeX*.",
"y L J o.pXnXdX3Xp } gX) o P R.xXxX(..X'.nXnX_.i L S w 8 0 h y.N.m.6.j n E dXnX[.Q.!.vX<Xm.=.h N Y R x = j N.hXY E nXzX[.G.P.>XG.",
"` lXcX+XF.].&XtX#.1 E 3.A A.Y.P.`.}.=X`.uX/.J.T.zXqXb.H ! e m ..h m A G.zXbX#XS.-XP.T.x.,.wX~.N.aXqX^.k j 1.! C oX-X=XF.-XT.}.z.",
"_.(.'.`.XX#X#XG.s & 0 d.O.<X=XOXG.}.A.S.'.G.F.=X{. XG.+XP.( 5 7 ; : m.;XK.!.;X>X>X4XJ.M.~.t.w.w. .q.M.V 6 r p ).}.P.}.}.oXF.Y.A.",
"zXZ.f.`.yX}.G.I.{ w w 0 ) 9X,.|.U.w.r.B.>.U.Y.w.|.C.|.tX~.9.q 1 2 | m.G.w.G.U.P.A.wX(.=.B.w.z.G.%.k.( j.a # N lX|.V.].#XF.J.J.<.",
"V.f.Q.g.[.w.V.-XY.P 1 0 C S.w.A.w.c.9.*.e.f.w.S.*.9.$.*.4.T 3 # r 8XZ.Z.=.*.G.F.<.:.;.5.9.&.9.n.^ P ] U b p C n.f.^.n.<.Y.F.,.L.",
"Y.A.J.9.5.2.0.w.}./ = j R.9.&.S.4.;.&.9.$.0.:.Q.w.M.;.;.,.B.N 6 j (.x.*.y.0.&.w.S.e.@.9.;.;.$.9.2.*.B Z u.0 l (.n.w.,.:.n.w.,.M.",
"A.a.z.e.$. .%.%.-.K 1 B fX7.$.w.3.%.d.;. .3.*.2.&.;.%.&.:.=.e.9 6 S.>.%.(.7.| ;.A.,.9.b.;.-.-.$.*.{ Z / ^ 0 5 ) M.*.;.r.K.,.&.;.",
"*.:.s.&.%.7. .^ Q K 5 s S.*.:.C.5.0.~.&.;.r.5.*.;.4.3.-.{ I H : 6 h.w.;.9.;.-.r.;.,.5.*.$.4.*.5.-.;.-.Z H N > r &.0.j.r.c.,.,.5.",
"%.9.B.,.;. .! G H K @ a c.9.;.5.8.*.;.;.r.^.,.-.5.{ K -.U P K - 8 h.r.;.=.*.5.z.;.;.@.7.;.7.5.P %.4.@.~ J H , w *.;.q.,.*.,.b.;.",
"*.7.%.%.%.T P d j p : g %.5.*.,.;.;.$.-.$.5.-.;.~ @.P *.H ^ S : 7 v.9.%.;.9.;.;.-.P $.;.,.N.;.U *.2.~ G H r : j %.9.(.t.*.5.-.*.",
"5.$.%.{ -.$.P G j 1 1 r [ 5.&.M.N.@.[ ;.~ ;.,.$.3.%.B P ^ Y L 2 8 $.5.5.$.;.%.;.%.} 0.:.8.B.t.@.*.%.~ P G q t : P *.t.*.$.5.;.%.",
"$.4./ { $.^ G P j 2 1 1 I 4.9.9.S.,.;.$.$.x.).,./  .P U G m g : : B %.9.%.4.%.;.*.q.c.*.*.9.*./ *.U B U n r 6 r U 5.$.&.{ 5.%.{ ",
"{ | H / ^ K K P r 0 8 t ^ %.5.%.B.,.;.;.9.&.,.%.K ~ G ~ G J a , > K I ~ %.4./  ./ @._ ~ *.9.%.I $.I U B N y : T I @._ *.@.%.*.@.",
" .U H P H ^ H H r J #.J B ~ P 5./ 9.$.%.~ $.! ~ I P ~ B I G B 0 g G P ~ P { ;.U H $.) P U K K U I G B B G ; 8 T K I $.*.{ %.%.{ ",
"%.I P ! G H I N g r G g g H ~ P *.%. .3.~ Q B K P P ~ K P B t ; 1 G K P ~ U ^ U U ^ G P K T G K P B B H g > > v K G 2./ B ^ { P ",
"P ~ B U P N ^ B ; %.aXG # M B ~ ! P ^ T H P ^ K P Z m P H B 8 h Y J b H V N B B G H P K P H G B B P B d r p r K P B ^ P B T ^ U ",
"I K ~ K ^ P M h e 6.).N @.m g P H G B P V H H K H V B B ~ a h ).aX} a d B H P B H M G M B H H J P b d N u.h 7.7XT M H ! U K G K ",
"T K H H H P H a M v.d 7 *.} w y y V Q L y j 0 4 Z U n g t j | n F h ` w u J G p h w y 9 5 2 w j 0 4 : 0 v 5 m.q.r m Q C ~ K M H ",
"r 8 a 8 > 2 ; # 0 L p b Q M s 8 q b e y 1 * ; - 7 : - 1 * p B a $ j E p 5 j h N 5 0 = # i w g - @.' 9 9 t b ( a @ 8 a N b B h h ",
"j #.sX) > T m D i C S.tX/.W.hXE : *.@.w q p N d M M B c B W &X].oXzXpXc o s 6.7X` = n ..aX%XrX1.V P V (.qXzXZ.( S 1 0 j L g 8 * ",
"kXsX[.XX*XeXhXaX'.h.|.^.|.vXxX3.+ P } q a &X'.P.(.1XrX%XlXG.G.{.I.4X*X$.N h u.o.q v.gXhXnX<X'.zXcX].S.*X&X&XG.].qXG o 7.9Xg * r ",
"kX~.>.Y.T.].[..XgXx.M.A.P.{.`.G.M % c ; M &XG.I.,XvXvX^.^.}.OXI.Y.D.].eXE.c h O f ^.vX%XK.oXI.].`.>Xa.`.yXG.J.P.Q.O.p h 6.q 7 %X",
"x.d.M.n.wXJ.C.@X/.J.A.z.z.g.G.Y.9.a + M ~.x.J.U.h.].c.e.Z.`.F.f.F.Y.F.,XzX| . N V.A./.<.,.P.Y.F.Y.I.F.^.|.Z.x.C.9.Q N G l.j i S.",
">./.S.*.c.r.<.P.U.@XJ.,.9.,.&.;.=.e a ~.cXeXs.F.:.*.x.,.<.m.w.,.Y.A.x.J.].{ % D :Xs.;.*.,.;.w.A.J.F.w.9.z.r.$.,.*.N.2X..c 5 C A.",
";.r.9.*.5.k.;.,.;XH.:.9.l.5.*.] t.e B S.S./.0.F.-.0.4.*.9.;.| q.J.<.,.x.O.m.s 4 OXt.b.%.9.-.-.w.;.`.;.-.0.%.-.%./ / 6.g @ q y.s.",
";.;.B.,.5.5.9.$.9.N.*.9.B.9.%.~ I 8 M K.,.^.,.,.9.9.*.9.).5.%.;.5.%.9.5.P ^ t y 9.9.;.*.;.;.).t.&.*.K.e.{ ;.-.%.$.K B G 1 8 4.%.",
";.;.t.*.&.5.@.9.;.;.*.9.9.*.*.~ H s V =.;.9.%.q.c.;.5.*.9.*.9.-.;.;.%.%.^ G 1 m m.5.*.*.&.5.,.&.;.9.c.*.] 4.$./ ;.U P K q r P 5.",
"-.%.} 5.;.%.*.(.5.*.5.*.*.5.^ H s G h.;.,.;.-. .5./ %.*.%.3.-.%.%.5.;.~ P Y 8 2 { 5.%.y.-.;.5.] $.;.t.;.$.4.$.^ Z ~ B c O 6 B %.",
";.;.^ %.5.*.9.:.] | ;.$.) { K ~ r G b.9.%.;.-.$.%.{ 5.5.5.%.{ %.K / } } ) K : g B @.5.{ U 5.$.$./ } *.*.| Y U P U P J j P q a K ",
"Y [ P Q @.@.5.%.P P ~ ~ H ! P B e t / ] 5.5.~ *.^ P 5.$. . .$.$.K ~ P ) Z P r - G U %.^ I } ] $.P ^ ~ ~ ^ G K P Q H c ^ 8X).R h ",
"c K Y G ) ^ B ~ T ~ B V P ~ H B r c K ^ *.@.Q ! K ^  .P I P P V ! B Z N m P a m n B K I U B P K K P H H K K I U N H G b G i.aX` ",
"r g g L j K ~ I B U ! H H G B G N @.B K I ! ^ K K ^ P c V P H ! Z V P Z ( d P 8XK J ^ K U ^ K U K K P V H K B M W B n c { g b.G ",
"9 r G 7X[ q m K U a V H N N b 6 l u.7 d P B m K P Z K / P V B N N Z i $ + ; u.} : > 9 N ! K P m T B H H H G B G N G h 6 j ) h j ",
"2 1 # } y.m ) m r > * 3 0 w p j ) Y R : 1 t N G N W j t 4 2 8 6 5 q ) L E H ` M M T I H r - 2 ` g t v S N V p j k 8 3 X 1.sX` 5 ",
"- - g * i #.gX6.: d G G j m j ! zX3XqX/ 9 j a p t r = , w p l p q 3 jXxXnX6XlX,X#XzXnX_.) q Y rX~ 1 r o.c : p t @ O o ..dX,X( % ",
"8 { qX .r 2.u.N c %XlXeX/.sXaX).].`.|.#X*X2X9 w m 1 q I wXXX}.S.Z.B.}.;XJ.}.cX,X:X#X^.#XyXwX(.&Xm.k 9 =.t.l $ o v D ` 2X X'.rX).",
"c.Q.~./ j 6.u.9 ! lX*X].J.[.&XsXY.}.yXJ.^._.G v I  .fXm.,X@Xf.K. X`.OX}.T.P./.G.I.D.P.=X5X4X`.Y.;.c > q v 6 v R sXfXhX3XH.S.%XcX",
"w.*.r.qX{ j H p ) ~.z.#X>X}.Y.`.c.r.Y.S.e.).rXc o 1.8Xe.G.I.s.L.bXx.F.].#X-XA. X-XT.U.T.F.=XF.J.x./ 8 a 9 K 9XkX1X>X/.qX$XD.G.e.",
"&.0.N.t.u.r X ) zX~.9.<.a.P.I.D.0.;.&.w.:.N.) : & W Q.w.A.J.:.7./.0.>.A.<.Y.t.f.G.Y.T.J.F.=XV.A.P.A W m.W S.vX.XU.F.r.9.K.w.Z.^.",
"%.&.0.5.y.p   R zX9.%.0.x.,.p.#X5.2.L.&.&.^ B : l N.d.9.A.9.9.%.<.c.Z.t.*.M.;.0.*.s.C.9.,.x.*.9.S.H 9 g b b.B.5.<.,.-.d.f.;.*.w.",
"-.5.*.*.=.G 1 n Q.9.5.| 0.;.,.$X8.9.;.,.| ^ T 8 a N.a.w.;.%.%.5.;.4.9.%.%.<.0.}.4.:.N.5.-.x.0.| / L w # r %.%.-.-.-.5.5.:.F.9. ."
};
