/* XPM */
static char *_d0e8b9ff5e94d3ab68fbb7bf251b077cMyxZARYfA7TK5uG[] = {
/* columns rows colors chars-per-pixel */
"128 113 10 1 ",
"  c None",
". c #0B222C",
"X c #183F4B",
"o c #194F54",
"O c #205F59",
"+ c #2E7E6F",
"@ c #38A787",
"# c #47A783",
"$ c #6FC792",
"% c #BCE1B7",
/* pixels */
"                                                                                                                                ",
"                                                                                                                                ",
"                                                                                                                                ",
"                                                                                                                                ",
"                                                                                                                                ",
"                                                                                                                                ",
"                                                                                                                                ",
"                                                                                                                                ",
"                                                                                                                                ",
"                                                                                                                                ",
"                                                                                                                                ",
"                                                                                                                                ",
"                                                                                                                                ",
"                                                                                                                                ",
"                                                                                                                                ",
"                                                                                                                                ",
"                                                                                                                                ",
"                                                                                                                                ",
"                                                         %             %%%$$                                                    ",
"                                                        %%$         %%%%%%                                                      ",
"                                                        %%$         %%%%%%                                                      ",
"                                                 $$%    %$%        %%%%%%                                                       ",
"                                            $$%%%%%%  %%%%%%%     %%%%%%$         %%%%%%                                        ",
"                                           %%%%%%$$   %%$%%%%   %%%%%%%$$      $$%%%%%%                                         ",
"                                          %%%%%%$  %%%%%$%%%%%##%%%%%$$$$     %%%%%%%%                                          ",
"                                          %%%%%%$  %%%%%$%%%%%##%%%%%$$$$     %%%%%%%%                                          ",
"                                 %%%  %% $%%$$$$%%%###$$$$%%%%##%%%%%$$$##   %%%%%%%$$          $                               ",
"                               %%%%  %%% %$$$$$#######$$$$%%%%##%%%%$$$$#####%%%%%$$       $%%%%%                               ",
"                              %%%   %%%%#$$$$$##########$$%%%%##%%%$$$$+#####%%%%$$     $%%%%%%%$                               ",
"                            %%%%$$$%%%##################$$$%%%####%$$+++#####$%$$##+   $%%%%%%%%                                ",
"                            %%%%$$$%%%##################$$$%%%####%$$+++#####$%$$##+   $%%%%%%%%                                ",
"                       %%% %%%%%$##%%####################$$$$#####$$+###%%%%#$#+++++###$%%%%%$@@                                ",
"                       %%% %%%%$$%%###################%%%##########+###%%%###++++######%%%%%##@@                                ",
"                       %%%$%%%$OO#####%%%###$$%#######%%%%%#####%%%##%%%%#############$$$####@    $$$$$$$                       ",
"                      $%%$%%$$OO###%%%%%%###$$%%######%%%%%%%#$%%%%#%%%%%#############$#O@@@#%  $$%%%%%                         ",
"                      $%%$%%$$OO###%%%%%%###$$%%######%%%%%%%#$%%%%#%%%%%#############$#O@@@#%  $$%%%%%                         ",
"                       $$%%$OOO##%%%%%$$+###$$%%%#####$$%%%%%$%%%%##%%%%#########%%%#####+++++$$%%%%%%                          ",
"             %%%%%       %$OOO###%%%%$$$+##+$$%%%#####$$$%%%%$%%##############%%%%%###+++++++$$$%%%$$@                          ",
"             %%%%%%%#$ OO$O#####%%%%%$$$+##+$$%%%%%#####$$%%%%%###############%$$%$####++++##$%%%%$@@@                          ",
"               %%%%%%$OOOO######%%%$$$++####++$%$%%#######$$$$$#####%%%%$####%%%%%$#########$$%%@@@@@                           ",
"               %%%%%%$OOOO######%%%$$$++####++$%$%%#######$$$$$#####%%%%$####%%%%%$#########$$%%@@@@@                           ",
"                %%%%%$OOOO%%####%$$$$+++####++$%%$$######%%########%%%%%#####%%%%$@#########$@@@@@@%%%  %%%%                    ",
"                %%%%%%OOO%%%####$$$+++++####+++$%$$#####%%######$$%%%%%######%%%%@@#############@O#%%%%%%%%%                    ",
"                +%%%%#O%%%$####o#+++++####OO+++++$$O##%%%$#####$%%%%%%%+#####%$$$@@OOO#$$OOO####O#%%%%%%%%%%                    ",
"               $$+++#OO%%$$###OoOOOO+OOOOOOOOOO++$$OO%%%$$$###$%%%%%%$$+####$$$@@@O$$$$$$##OOOOOO%$%%%%##                       ",
"               $$+++#OO%%$$###OoOOOO+OOOOOOOOOO++$$OO%%%$$$###$%%%%%%$$+####$$$@@@O$$$$$$##OOOOOO%$%%%%##                       ",
"               $$#+++++%%$%%##ooOOO++$$$$#OOOO$$+OOOO%$$$$####$%%%%%$+++####$@@OOO$$$$$##OOOOOOOO#%%%### %%%%%%%%               ",
"           ##$$%#####OO%%$%%##ooOOOO$$###OOO##$$OOOOO$$$$####+$%%%%$+++#####O@OOO$$$####OOOOOOOOO######%%ooooo%%%               ",
"            #$$#####OOO%%$%%oooOO$$$$#OOOOOO##$$#OOO$$$$$#O##+$%%%$++++###OOOOOOO$$####OOOOOOO$$$oo##ooooooooo                  ",
"             %%%##OOOoooo%%%ooooo$$$##OOOOOO##$+#OOO$$$$##OOO+$$$$+++###OOOOOOO#######OO$$$$$$$$$oooooo$%%%%%%%%%               ",
"             %%%##OOOoooo%%%ooooo$$$##OOOOOO##$+#OOO$$$$##OOO+$$$$+++###OOOOOOO#######OO$$$$$$$$$oooooo$%%%%%%%%%               ",
"            %%%OOooooooooo%ooooo#$$##OOOooo###$$###O$$##OOO##++#$$++###OOOOOOOOOO###OOO$$$$+$####ooooo$%$$$$%%%%%               ",
"           O%OOOoooooooOOOoooooo$$$##Oooooo###$$+###O#OOOO$$$$OOOOo#OOOOOOOOOOOOOOOOOOO$$++###++ooo###$%%%%%++                  ",
"           %%OOOooooooOOOOooooo#####OOoooooo###$#+++ooooO#$$$##OOOoOOOOOO###OOOOOOOooo#$+####+++ooo##$%####+++                  ",
"           %O%%ooooooOOOOOooooo#####Oooooooo####$$$#oooo#$$####oooOOOOO##+++OOOooooooo#+###+++ooooo####+++++                    ",
"           %O%%ooooooOOOOOooooo#####Oooooooo####$$$#oooo#$$####oooOOOOO##+++OOOooooooo#+###+++ooooo####+++++                    ",
"            o%%oo#$$$OOOOoooooo####OoOooooooooo####ooooo#$$####oooooo###++##ooOooooooo##+++++oooooo##++++++                     ",
"           %%oooo$$$$OOoooo$$$oo#OOo#O##ooooooooooooOooo#$$###ooooooo##++###ooOoooooooo+oooooo###oooooooOOO%%%%%%%%             ",
"        %%%ooooo$$$$#Ooooo$###OooooO#####OOoooooooooOooo#####ooooooo###+##ooooooooooooooooooo###$oooooooo%%%O%%%                ",
"        %%oooooo$$$$#oooo$$###Ooooo######OOooooooOOOOOooo##ooooooooo#++##oooooooooooooooOooXX###$$#ooOOoooo%%ooo                ",
"        %%oooooo$$$$#oooo$$###Ooooo######OOooooooOOOOOooo##ooooooooo#++##oooooooooooooooOooXX###$$#ooOOoooo%%ooo                ",
"        %%oooooo$$###oooo$##OOooooo######OOooooooOOOOOooooooooOooooo###oo#oooooooooXXXooOOOOX###$$$$$$OoX%%%                    ",
"             ooo$###ooooo###OOooooo#####OOooooooOOOOOOOOoooooooOOOoooooo##oooooXXXOXXXXoOOOOOX###$$$$OOOXooO                    ",
"           ooooo####oooOO#OOooooooo#####ooooooooOOOOOOOOoooooooOOOoooOOO##ooooXoooOoXXXooOOOOOXX###$$OOOXooOO                   ",
"          oooooO#OoooooooOOoooooOOO##OOOOoooooooOOOOOOOOooooooooOOoooOO#####XXXoooOoXXXXoooOOOOOXXXXXoOOOXXoOO                  ",
"          oooooOOXXXXXXXXXXXXXXOO####OOOOXXXXXoooOOOOOOOooooooooOOOooOO#####XXoooOOoXXXXXooooOOOXXXXXooOOXXoOOOO                ",
"          oooooOOXXXXXXXXXXXXXXOO####OOOOXXXXXoooOOOOOOOooooooooOOOooOO#####XXoooOOoXXXXXooooOOOXXXXXooOOXXoOOOO                ",
"          ooo  XXXXXXXXXXXXXXXXOOOOOOOOOoXXXXXXXXooOOOXXXXXXXoooooOoXooO####XXoooOoXXXXXXXXXXXXXXXXXXXoXX  ooooo                ",
"          ooo  oooooXXXXXXXXXXXOOOOOOOooXXXXXXXXXooOOOXXXXXXXXXXXXXoXooO####XXoOOOXXXXXXXXXXXXXXXXXXXXoXXXXXOOXX                ",
"        ooo  ooooooooXXXXXXoXXXOOOOOOoooXXXooooXXoooooXXXXXXXXXXoooXXXXo####XXOOOXXXXXXXXXXXXXXXXXXXXXoOXXXXOOOOX               ",
"            oooooooooXXXXXooooXXOOOOooXXXXoooooXXXXXooooXXXXXXXXooooXXXoO#XXXXXXXXXXOOOOoXXXXXooooXXXXoOXXXXOOOOOO              ",
"            oooooooooXXXXXooooXXOOOOooXXXXoooooXXXXXooooXXXXXXXXooooXXXoO#XXXXXXXXXXOOOOoXXXXXooooXXXXoOXXXXOOOOOO              ",
"           ooooooooooXXXXoooooXXOooooXXXXooooooXXXXXooooXXXXXXXXXXooXXXXXXXXXXXXXXXXooOOoooXXXooooXXXXoOOOO XOOOOO              ",
"          ooooo oooooXXoooOoooXXOooXXXXXooooooXXXXXXoooooXXXXXXXXXXoXXXXXXXXXXXXXXXXXXoOOooXXXoooooXXXooOOO                     ",
"          oo   oooXXXXXooOooXXXXXXXXXXXXooooXXXXXXXXXooooXXXXoOOXXXXXXXXXXXXXXXXXXXXXXoOOOOXXXXXoooXXXXoooo                     ",
"               ooXXXXXooooooXXXXXXXXXXXXooXXXXXXXXXXXoooXXXXXoOOOOXXXXXXXoOOOXXXXXXXXXXOoOOOXXXXXoXXXXXXooo                     ",
"               ooXXXXXooooooXXXXXXXXXXXXooXXXXXXXXXXXoooXXXXXoOOOOXXXXXXXoOOOXXXXXXXXXXOoOOOXXXXXoXXXXXXooo                     ",
"               XXXXXXXoooooXXXXXXXXoooXXXXXXXXXXXXXOXXXXXXXXXoOOOOXXXXXXXoOOOoXXXXXXXXXooOOOXXXXXXXXXXXXXXX                     ",
"               XXXXXXXXXXXXXXXXXXXXoooooXXXXXXXXXOOOXXXXXXXXXoOOOOOXXXXXXoOOOOoXXXXXXXXXoOOOXXXXXXXXXXXXOOOOOOOO                ",
"             XXOOOXXXXXXXXXXXXXXXXXooooooXXXXXXXOOOOoXXXXooXXooOOOOXXXXXXXooOOOOOXXXXXXX....XXOOO....XXXXOOXX                   ",
"             OOOOXXXXXXXXX......XXXooooooooXXXXXOOOOoXXXXooXXXoOOOoXXoooXXooOOOOO...XXOO....XOOOOOOOOOO     XX                  ",
"             OOOOXXXXXXXXX......XXXooooooooXXXXXOOOOoXXXXooXXXoOOOoXXoooXXooOOOOO...XXOO....XOOOOOOOOOO     XX                  ",
"             OOOXX   OOXXX.........XXooooooXXXXoOOOOoXXXXooXXXooooXXXooooXXXoOOOO...OOOOXXX..OOOOOOOO.OOO                       ",
"           XXOOX    XOXXXX..XXX......XXXXXXXXXXoOOOooXXXXooXXXXXXXXXXoooo....oOOO...OOOO.....XOOO.....OOOOO                     ",
"           XX     OOOOXXXX..XXXX........XXXXXXXOOoooXXXXoooXXXXXXXoXXoooo...........OOOOX......... ....OOOOO                    ",
"                  OOOXXXX .XXXXXX.........XXXXXoOooXXXXXoooXXXXoXXo..oooo........X..XXOOX........XX...                          ",
"                  OOOXXXX .XXXXXX.........XXXXXoOooXXXXXoooXXXXoXXo..oooo........X..XXOOX........XX...                          ",
"                  XXOXXXX XXXXXXX.......XX....XXXXXXXXXXXXXXXXXXooo..oooo......XXO....XX.....O....XXXXX                         ",
"                  XXOX   XXXXX.XXXX.....XXX...........XXX.....XXooo.........XXOOOO..........OO.........                         ",
"                  XXX  XXXXX  XXX.......XXXX.......X..XXXX.....oooo.......XXOOOOO........XXOOX...........                       ",
"                         XX   XXXXXX.....XXXXX...XXX....XX.....ooo.......XOOOOO.........OOOOX......                             ",
"                         XX   XXXXXX.....XXXXX...XXX....XX.....ooo.......XOOOOO.........OOOOX......                             ",
"                              XXXXXX......XXXX..XooX...........o......................XXXXXX.....                               ",
"                               XX..........X...XXXXX.............................................                               ",
"                                ................XXX..........................................                                   ",
"                               ...........................................    ......  .......                                   ",
"                               ...........................................    ......  .......                                   ",
"                               ....   ......   .....................           .....   .   ..                                   ",
"                               .      .....    .....                             ...                                            ",
"                                      ...       .                                  ...                                          ",
"                                                                                                                                ",
"                                                                                                                                ",
"                                                                                                                                ",
"                                                                                                                                ",
"                                                                                                                                ",
"                                                                                                                                ",
"                                                                                                                                ",
"                                                                                                                                ",
"                                                                                                                                ",
"                                                                                                                                ",
"                                                                                                                                ",
"                                                                                                                                ",
"                                                                                                                                "
};
