/* XPM */
static char *_40cf8a16cd54a76cb67a0b0bad1013ePYrx2PNI2s0Ca2wc[] = {
/* columns rows colors chars-per-pixel */
"64 64 159 2 ",
"   c None",
".  c #0B222C",
"X  c #0C2631",
"o  c #0E2A34",
"O  c #102E37",
"+  c #102E39",
"@  c #11333C",
"#  c #12383C",
"$  c #143741",
"%  c #153A44",
"&  c #173E4A",
"*  c #183F4B",
"=  c #164345",
"-  c #17424C",
";  c #18434D",
":  c #17494D",
">  c #1A4A4E",
",  c #184750",
"<  c #174C52",
"1  c #194D52",
"2  c #1B5355",
"3  c #1E5A56",
"4  c #1C5758",
"5  c #1F5C59",
"6  c #215D5A",
"7  c #2A5B5C",
"8  c #1F6059",
"9  c #22635C",
"0  c #29615D",
"q  c #26695E",
"w  c #256660",
"e  c #266A61",
"r  c #296D62",
"t  c #346664",
"y  c #346B66",
"u  c #396F67",
"i  c #3A6D68",
"p  c #2B7265",
"a  c #2C7669",
"s  c #2E7B6B",
"d  c #327566",
"f  c #337866",
"g  c #347568",
"h  c #3C756A",
"j  c #327C6B",
"k  c #3C7C6D",
"l  c #44756E",
"z  c #437C6E",
"x  c #4A7B72",
"c  c #33826E",
"v  c #3C846D",
"b  c #348571",
"n  c #398775",
"m  c #358C75",
"M  c #3A8C74",
"N  c #3B9176",
"B  c #359278",
"V  c #3C9479",
"C  c #32997D",
"Z  c #3E997C",
"A  c #40876F",
"S  c #428B73",
"D  c #57877A",
"F  c #568879",
"G  c #5B8D7C",
"H  c #439275",
"J  c #489276",
"K  c #439479",
"L  c #439D7D",
"P  c #4B9B7B",
"I  c #53947B",
"U  c #5B9A7F",
"Y  c #618F7F",
"T  c #42A07F",
"R  c #4CA17E",
"E  c #50A17E",
"W  c #36A383",
"Q  c #3AA786",
"!  c #3CA988",
"~  c #4A9C81",
"^  c #519E81",
"/  c #609A81",
"(  c #6D9B86",
")  c #739F8A",
"_  c #45A582",
"`  c #4AA582",
"'  c #47A883",
"]  c #4BAA84",
"[  c #51A281",
"{  c #59A485",
"}  c #53AC85",
"|  c #5AAC83",
" . c #55AD89",
".. c #59AD8A",
"X. c #4EB38D",
"o. c #55B187",
"O. c #5CB287",
"+. c #56B389",
"@. c #5AB48A",
"#. c #5EB98C",
"$. c #56B490",
"%. c #58B592",
"&. c #5BB891",
"*. c #63A485",
"=. c #74A48C",
"-. c #78A58D",
";. c #73A88E",
":. c #60B387",
">. c #62B48E",
",. c #6AB58E",
"<. c #63BB8C",
"1. c #68BD8C",
"2. c #78AB90",
"3. c #67B590",
"4. c #68B792",
"5. c #6CBB93",
"6. c #75B093",
"7. c #72BC95",
"8. c #7FB997",
"9. c #65C08E",
"0. c #6AC18F",
"q. c #6BC491",
"w. c #6FC893",
"e. c #73C494",
"r. c #77C995",
"t. c #78CA96",
"y. c #7CC39A",
"u. c #7DCC99",
"i. c #82AF94",
"p. c #87B397",
"a. c #83C49C",
"s. c #8BC19E",
"d. c #85CB9C",
"f. c #89CF9F",
"g. c #8BD09F",
"h. c #82C7A1",
"j. c #8CC5A0",
"k. c #8DCBA1",
"l. c #97C6A1",
"z. c #9FC7A5",
"x. c #92CCA2",
"c. c #9BCFA7",
"v. c #8DD1A0",
"b. c #94D2A4",
"n. c #9AD4A6",
"m. c #9DD4A8",
"M. c #9ED9A9",
"N. c #A6CDAA",
"B. c #A3D4AB",
"V. c #AAD6AE",
"C. c #A5D9AC",
"Z. c #ABDBAE",
"A. c #AEDBB0",
"S. c #B1D7B0",
"D. c #B4DDB3",
"F. c #B9DFB5",
"G. c #BCE1B6",
"H. c #BEE2B8",
"J. c #C1E3B9",
/* pixels */
"                                                                                                                                ",
"                                                                                                                                ",
"                                                                                                                                ",
"                                                                                                                                ",
"                                                                                                                                ",
"                                                                                                                                ",
"                                                                                                                                ",
"                                                                                                                                ",
"                                                                                                                                ",
"                                                                                                                                ",
"                                                                      G.D.                                                      ",
"                                                        Z.d.        F.H.H.                                                      ",
"                                              G.C.C.  G.Z.D.      F.G.D.M.          G.                                          ",
"                                          G.D.G.b.M.  D.C.G.D.  D.H.Z.g.      m.C.H.G.                                          ",
"                                          D.C.C.b.B.n.M.b.G.S.&.A.H.b.q.<.    G.H.G.C.                                          ",
"                                H.H.  G.b.f.e.<.4...] <.r.D.S.>.S.D.u.9.' _ k.H.D.v.        D.G.                                ",
"                            G.F.g.n.D.y...+.+.' _ _ ' ] q.C.S.@.8.b...H W _ 5.C.e.'     A.F.H.G.                                ",
"                            G.D.e.f.c.' _ _ _ ' ' _ ' ] <.d.j.] ] e.L V 7.7.<.3.P m   e.D.H.C.h.                                ",
"                      G.F.A.G.a.,.5. .3...' o.o.' '  .m.k.&.' ] 4... .k.V.>.~ m N _ ' 7.n.k.+.W                                 ",
"                      C.C.C.d.f V 7.B.G.a.' r.n.] _  .A.H.A.7.y.G.k.B.J.a._ _ ' _ _ ] @.V ! 4.  r.C.C.n.                        ",
"                      g.M.l.M s ,.V.F.k...` e.S.5._ ] v.D.H.b.C.A.5.B.C.3._ '  .7.y.] ` m m ~ r.M.D.D.                          ",
"              G.G.D.    *.P c ` n.G.b.<.L L 5.D.m.3.' @.d.D.Z.x. ._  . .' '  .b.C.y.' m b b  .b.A.u.X.                          ",
"              G.G.G.d.q q L '  .A.M.q.V T T V f.Z.y._ ' } r.u.<._  .m.C.&._ y.F.A.>.' _ W ' w.C.%.! Q                           ",
"                G.J.l.q h s.]  .k.e.P b _ _ b a.b.3.' ` y.q.} ' ] h.F.V. ._ y.J.b.] _ _ ' ] @.@.W 4.A.  H.G.                    ",
"                s.V.p.I l.y.] M K m s m V j a M ,.R ] x.b.} _ <.m.F.F.7.~ _ y.v.@.B M o.R c Z V V n.H.D.D.H.                    ",
"                [ M j =.M.#._ 6 5 9 p q q 6 8 p P S ( D.t.@.' v.J.F.b.` T ] q.+.C P 0.0.@.s 8 8 / V.H.8.@.                      ",
"              t. .B s ;.B.n.` 5 9 q E  .M q j | f 9 U u.0.' ' f.J.C.^ m _ _ _ s c <.<.o.f 8 8 8 S h.7.>.2.( -.D.                ",
"            5.y.] B q F x.B.y 2 v O.} f q q T #.c q O.e. .c M d.B.{ b V V r w 9 P @._ c f f v | S a a k D l x N.                ",
"            G.B.K 9 2 < Y z.7 < J 0.L 9 3 q _ } c r 1.1.V q j <.9.b Z Z 8 8 5 s _ ' N f 4.q.9.q.S , < ^ V.A.G.G.                ",
"            p.z 2 2 1 2 0 u 1 5 O.#.c 2 < f ] <.T N K c r E E c v s c r 8 q 8 8 p s 9 K @._ ] B w 9 M p.b.h.6.V.                ",
"            =.h 1 < 1 6 5 1 1 s ] T q < < 5 _ o.E V 5 2 H 9.+.s 4 8 5 r c b 9 5 4 2 3 K L L m w < s @.3.~ ~ s                   ",
"            p.( 3 g e 6 5 1 1 s ] Z 3 1 < 4 b L 9.R 2 3 o.#.' s < 3 9 N N b 8 3 1 < 4 N Z m p 2 < s ~ m s s                     ",
"            / t H e.S 2 2 k K r j q s b 8 1 2 5 e 5 2 4 } +.V w 1 2 j W M M 4 2 1 1 2 r 9 5 w n p 4 w 5 g =.S.J.F.              ",
"        S.l , 6 <.q.c < g @._ 6 1 r _ ] b 4 < 1 2 3 4 2 m N w < < 4 N V n 2 1 2 1 2 1 2 2 , a ] { w < 2 t i.-.G                 ",
"        N.0 1 6 <.#.j < S o.c 3 < s ] ' c 2 1 1 4 5 5 2 w w < 2 2 3 m b a 2 1 2 1 , , 1 4 2 p ] q.E n 4 t p.)                   ",
"            1 6 } L 9 < j M 6 1 1 s ` W w 1 1 1 5 6 5 3 1 1 1 4 3 1 9 w N 4 < , > 1 * 1 5 5 6 b  .0.P 3 7 u                     ",
"          2 < 4 f 9 1 1 6 2 , 2 6 m m r 2 , 1 2 5 8 6 5 2 1 1 2 6 2 2 j _ b 1 , 2 2 - - 1 3 3 6 6 7 7 5 > > 5                   ",
"          1 < 4 , & & ; * * * 1 j ~ s 8 1 & - 1 2 8 5 3 1 , < 2 3 2 2 j ' ~ 1 1 2 2 - * ; , 2 2 ; & ; 2 1 > 3 5                 ",
"          2 1 , , : & & * * * 2 9 9 9 2 ; * * * > 2 5 ; * - ; ; > 1 , 9 L ~ 1 1 3 ; & & ; ; * ; & & ; > * ; 2 >                 ",
"            2 < 1 2 ; & * , - , 8 8 2 : - , < ; : 1 2 ; - & * * , , ; 1 B k , 2 > ; ; > ; & - ; ; & * 1 - - 6 6 2               ",
"            2 2 2 1 , * - 1 < - 3 3 , * ; < 1 > & * 1 < * * * * 1 1 ; ; q > * & & * 2 6 > ; * 1 1 ; * 2 > ; 6 6 6               ",
"          2 1 < 1 1 ; ; 1 2 < ; 2 : ; ; , 2 < ; & * , 2 ; & - - ; ; ; * * * & * & * ; 3 2 > * > 1 - * 2 3 3                     ",
"                , - * > 2 1 ; * & * & & , , * & * & > 1 ; * , 3 1 * & & - 1 ; & * * - 1 6 2 * * , ; * - 1                       ",
"                - * * 1 1 1 * * & ; ; ; , * & & * - : ; * * < 3 6 - & & > 9 2 & * * * 1 2 6 ; & - - * ; , 1                     ",
"              , ; & & * ; * * & & , 1 < - * * * 1 6 ; * ; - , 6 6 > & & : 3 5 1 ; * = ; : > ; : * # & & 2 2 2                   ",
"              4 6 * & & & + o + & , 1 2 1 ; & ; 3 5 > * ; , - 2 9 > ; < ; 1 5 8 = O % > . . > 6 2 > > >     ;                   ",
"            6 6 1   1 ; & . . X O $ , 1 1 , & ; 6 5 , * , , * 1 2 ; ; 1 ; : 2 8 % . > 3 # X = 9 8 3 > 9                         ",
"            1 2     2 - & X $ $ . . o $ & * & 1 6 2 ; * , > * - ; & ; 2 $ . @ = @ X 6 6 @ . O = # o X > 9 6                     ",
"                  6 2 * % O & & + . . . X % & , 2 , * * , , * - - $ % 1 # . . . O X : 5 @ . . . O O .                           ",
"                  1 1 * & & & & $ X . . + + o % * % % * * & % - < # # = @ . . # = . O % X . # X X # @                           ",
"                  ; >   * * % % % X . . & % X . . o X & $ . . % 1 $ . . . $ > 3 = . . . O = > . . . . .                         ",
"                        * *   * & % . . + * % X + & X X % . . # < X . . @ 3 3 = . . . X 2 3 # . . .                             ",
"                              * % # X . X % $ X * * . . X . . O o . . . . O X X . . . @ $ $ . . .                               ",
"                                . . . . . . . X $ + . . . . . . . . . . . . . . . . . . . . .                                   ",
"                                . . . . . . . . . . . . . . . . . . . . .     . . .   . . . .                                   ",
"                                .     . . .   . . . .   . . . . .               . .                                             ",
"                                      .                                                                                         ",
"                                                                                                                                ",
"                                                                                                                                ",
"                                                                                                                                ",
"                                                                                                                                ",
"                                                                                                                                ",
"                                                                                                                                ",
"                                                                                                                                "
};
