/* XPM */
static char *c3965addd6424fc7d245574a84b9f96cNnSQf6F7x2iXVtjR[] = {
/* columns rows colors chars-per-pixel */
"47 32 8 1 ",
"  c #21263F",
". c #394071",
"X c #6C4F40",
"o c #5A5A63",
"O c #847F7F",
"+ c #4063B2",
"@ c #BCB19F",
"# c #EFE7CE",
/* pixels */
"   .......++......................++...........",
"    .+.......................+...............+.",
"    .....++......................++........... ",
"    ......................................... #",
"   ..........................................O#",
"    .........................................O#",
"   ..........................................O#",
"   ..................................+....@@ Oo",
"   ....................................X .@@ Oo",
"    ...................................  . XX. ",
"    ..................................+.@@   +.",
"    ..................................++ XXX ++",
"   ....................................+.@@  .+",
"    ..................................+ X@@ ...",
"   ...................................+.    ...",
"   ...................................+++.++...",
"   .......................................++...",
"    .................................+.......+.",
"    .....................................++... ",
"    ......................................... #",
"   ..........................................O#",
"    .........................................O#",
"   ..........................................O#",
"   ..........+....@@ ........................Oo",
"   ............X .@@ ........................Oo",
"    ...........  . XX......................... ",
"    ..........+.@@   ........................+.",
"    ..........++ XXX ++......................++",
"   ............+.@@  ++.+.....................+",
"    ..........+ X@@ ......++...................",
"   ...........+.    .+++..++...................",
"     +XX.+  .. @@ @  +XX.+  .+XX.+  .. @@ @  XX"
};
